<?xml version="1.0" encoding="iso-8859-1"?>
<!-- Generator: Adobe Illustrator 21.0.0, SVG Export Plug-In . SVG Version: 6.00 Build 0)  -->
<svg xmlns="http://www.w3.org/2000/svg" xmlns:xlink="http://www.w3.org/1999/xlink" version="1.1" id="Capa_1" x="0px" y="0px" viewBox="0 0 511.276 511.276" style="enable-background:new 0 0 511.276 511.276;" xml:space="preserve" width="512" height="512">
<g>
	<path style="fill:#00723F;" d="M311.709,386.853c-1.286-2.497-3.859-4.066-6.668-4.066H246.77c-1.09,0-2.167,0.237-3.155,0.696   L135.64,433.556c-2.423,1.124-4.065,3.451-4.313,6.109c-0.247,2.659,0.938,5.249,3.112,6.8l86.49,61.71   c1.279,0.913,2.804,1.395,4.356,1.395c0.412,0,0.825-0.034,1.237-0.102c1.962-0.328,3.713-1.422,4.869-3.042l79.757-111.784   C312.778,392.356,312.996,389.35,311.709,386.853z"/>
	<path style="fill:#006635;" d="M309.239,397.317l1.908-2.674c1.631-2.286,1.849-5.292,0.563-7.79   c-1.286-2.497-3.859-4.066-6.668-4.066H246.77c-1.09,0-2.167,0.237-3.155,0.696L135.64,433.556   c-2.423,1.124-4.065,3.451-4.313,6.109c-0.247,2.659,0.938,5.249,3.112,6.8l27.11,19.343L309.239,397.317z"/>
	<path style="fill:#007C46;" d="M254.094,388.671c-0.758-3.437-3.804-5.884-7.324-5.884H77.521c-2.56,0-4.943,1.306-6.321,3.463   c-1.378,2.158-1.56,4.87-0.482,7.192l29.957,64.596c1.269,2.737,3.978,4.347,6.809,4.347c1.056,0,2.129-0.225,3.15-0.698   l139.292-64.596C253.119,395.61,254.852,392.108,254.094,388.671z"/>
	<path style="fill:#00723F;" d="M249.926,397.091c3.193-1.481,4.927-4.983,4.169-8.42c-0.758-3.437-3.804-5.884-7.324-5.884H77.521   c-2.56,0-4.943,1.306-6.321,3.463c-1.378,2.158-1.56,4.87-0.482,7.192l11.058,23.844h124.601L249.926,397.091z"/>
	<path style="fill:#00723F;" d="M376.837,64.81L290.348,3.1c-1.62-1.155-3.631-1.62-5.594-1.292   c-1.962,0.328-3.713,1.422-4.868,3.042l-79.757,111.784c-1.631,2.286-1.848,5.293-0.562,7.79c1.286,2.497,3.859,4.066,6.668,4.066   h58.27c1.09,0,2.167-0.237,3.155-0.696L375.636,77.72c2.423-1.123,4.065-3.451,4.313-6.109   C380.196,68.952,379.011,66.362,376.837,64.81z"/>
	<path style="fill:#006635;" d="M267.661,127.794L375.636,77.72c2.423-1.123,4.065-3.451,4.313-6.109   c0.247-2.659-0.938-5.249-3.111-6.8l-27.436-19.575l-146.955,68.15l-2.318,3.249c-1.631,2.286-1.848,5.293-0.562,7.79   c1.286,2.497,3.859,4.066,6.668,4.066h58.27C265.595,128.49,266.672,128.252,267.661,127.794z"/>
	<path style="fill:#007C46;" d="M440.558,117.834l-29.956-64.597c-0.837-1.805-2.356-3.203-4.224-3.887   c-1.868-0.684-3.931-0.598-5.735,0.239L261.35,114.185c-3.193,1.481-4.927,4.983-4.169,8.42c0.759,3.437,3.805,5.884,7.324,5.884   h169.249c2.56,0,4.943-1.306,6.321-3.463C441.454,122.869,441.635,120.157,440.558,117.834z"/>
	<path style="fill:#00723F;" d="M264.505,128.49h169.249c2.56,0,4.943-1.306,6.321-3.463c1.378-2.158,1.56-4.869,0.482-7.192   L429.5,93.99H304.9l-43.55,20.196c-3.193,1.481-4.927,4.983-4.169,8.42C257.94,126.042,260.986,128.49,264.505,128.49z"/>
	<path style="fill:#008950;" d="M503.776,113.49H7.5c-4.142,0-7.5,3.358-7.5,7.5v269.297c0,4.142,3.358,7.5,7.5,7.5h496.276   c4.143,0,7.5-3.358,7.5-7.5V120.99C511.276,116.848,507.918,113.49,503.776,113.49z"/>
	<path style="fill:#007C46;" d="M503.776,113.49h-27v284.297h27c4.143,0,7.5-3.358,7.5-7.5V120.99   C511.276,116.848,507.918,113.49,503.776,113.49z"/>
	<path style="fill:#45BF7F;" d="M466.552,195.151c-19.398,0-38.439-18.531-38.439-37.412c0-4.142-3.357-7.5-7.5-7.5H86.582   c-4.142,0-7.5,3.358-7.5,7.5c0,20.037-16.055,37.612-34.358,37.612c-4.142,0-7.5,3.358-7.5,7.5v105.566c0,4.142,3.358,7.5,7.5,7.5   c18.303,0,34.358,17.576,34.358,37.612c0,4.142,3.358,7.5,7.5,7.5h334.032c4.143,0,7.5-3.358,7.5-7.5   c0-18.881,19.04-37.412,38.439-37.412c4.143,0,7.5-3.358,7.5-7.5V202.651C474.052,198.509,470.695,195.151,466.552,195.151z"/>
	<path style="fill:#FFDF65;" d="M255.638,184.151c-39.469,0-71.58,32.11-71.58,71.58c0,39.469,32.111,71.58,71.58,71.58   c39.47,0,71.58-32.111,71.58-71.58C327.218,216.261,295.108,184.151,255.638,184.151z"/>
	<path style="fill:#FFCD2C;" d="M255.638,184.151c-5.808,0-11.449,0.712-16.86,2.024c31.358,7.602,54.72,35.894,54.72,69.555   s-23.362,61.953-54.72,69.556c5.41,1.312,11.052,2.024,16.86,2.024c39.47,0,71.58-32.111,71.58-71.58   C327.218,216.261,295.108,184.151,255.638,184.151z"/>
	<path style="fill:#00B76C;" d="M466.552,195.151c-19.398,0-38.439-18.531-38.439-37.412c0-4.142-3.357-7.5-7.5-7.5h-32.611   c-4.742,27.286,29.133,70.412,51.55,70.412v69.968c-22.416,0-56.292,43.126-51.55,70.412h32.611c4.143,0,7.5-3.358,7.5-7.5   c0-18.881,19.04-37.412,38.439-37.412c4.143,0,7.5-3.358,7.5-7.5V202.651C474.052,198.509,470.695,195.151,466.552,195.151z"/>
</g>















</svg>
